<?xml version="1.0" standalone="no"?>
<!DOCTYPE svg PUBLIC "-//W3C//DTD SVG 20010904//EN"
 "http://www.w3.org/TR/2001/REC-SVG-20010904/DTD/svg10.dtd">
<svg version="1.0" xmlns="http://www.w3.org/2000/svg"
 width="200.000000pt" height="200.000000pt" viewBox="0 0 200.000000 200.000000"
 preserveAspectRatio="xMidYMid meet">

<g transform="translate(0.000000,200.000000) scale(0.100000,-0.100000)"
fill="#000000" stroke="none">
<path d="M0 1000 l0 -1000 1000 0 1000 0 0 1000 0 1000 -1000 0 -1000 0 0
-1000z m810 385 c24 -29 -5 -45 -85 -45 -76 0 -103 -14 -91 -45 4 -12 25 -15
101 -15 88 0 98 -2 120 -25 19 -18 25 -35 25 -70 0 -35 -6 -52 -25 -70 -22
-23 -32 -25 -118 -25 -99 0 -124 10 -111 44 5 13 21 16 84 16 81 0 109 13 96
45 -4 12 -24 15 -91 15 -120 0 -154 21 -155 96 0 27 7 50 21 68 20 25 24 26
119 26 74 0 100 -4 110 -15z m549 -11 c18 -23 21 -41 21 -129 0 -88 -3 -106
-21 -129 -20 -25 -23 -26 -139 -26 -116 0 -119 1 -139 26 -18 23 -21 41 -21
129 0 88 3 106 21 129 20 25 23 26 139 26 116 0 119 -1 139 -26z m-572 -470
c12 -3 24 -13 27 -21 12 -30 -14 -42 -97 -45 l-82 -3 0 -85 0 -85 85 0 c78 0
85 2 85 20 0 17 -8 21 -49 25 -51 5 -74 25 -63 54 5 12 20 16 72 16 57 0 69
-3 90 -25 19 -18 25 -35 25 -70 0 -35 -6 -52 -25 -70 -23 -24 -31 -25 -135
-25 -104 0 -112 1 -135 25 -23 22 -25 31 -25 127 0 146 17 166 140 167 36 1
75 -2 87 -5z m569 -27 c22 -26 24 -37 24 -133 0 -98 -2 -107 -25 -129 -23 -24
-31 -25 -135 -25 -104 0 -112 1 -135 25 -23 22 -25 31 -25 128 0 90 3 108 20
130 25 32 42 36 158 34 89 -2 95 -3 118 -30z"/>
<path d="M1142 1328 c-16 -16 -16 -150 0 -166 7 -7 40 -12 78 -12 38 0 71 5
78 12 7 7 12 41 12 85 0 61 -3 74 -19 83 -27 14 -134 13 -149 -2z"/>
<path d="M1142 831 c-9 -5 -12 -30 -10 -87 l3 -79 85 0 85 0 3 79 c2 57 -1 82
-10 87 -17 11 -139 11 -156 0z"/>
</g>
</svg>
