<?xml version="1.0" standalone="no"?>
<!DOCTYPE svg PUBLIC "-//W3C//DTD SVG 20010904//EN"
 "http://www.w3.org/TR/2001/REC-SVG-20010904/DTD/svg10.dtd">
<svg version="1.0" xmlns="http://www.w3.org/2000/svg"
 width="900.000000pt" height="520.000000pt" viewBox="0 0 900.000000 520.000000"
 preserveAspectRatio="xMidYMid meet">

<g transform="translate(0.000000,520.000000) scale(0.100000,-0.100000)"
fill="#000000" stroke="none">
<path d="M4305 5194 c-378 -38 -670 -122 -982 -284 -607 -314 -1070 -869
-1272 -1525 -78 -255 -105 -447 -105 -745 0 -242 11 -355 54 -550 143 -643
534 -1212 1088 -1583 132 -88 388 -218 537 -273 129 -47 368 -107 520 -130
168 -25 542 -25 710 0 152 23 391 83 520 130 150 55 405 185 535 272 506 338
876 838 1044 1412 77 258 101 433 100 727 0 293 -28 488 -105 740 -250 811
-895 1456 -1704 1703 -238 73 -426 102 -695 107 -113 1 -223 1 -245 -1z m515
-420 c853 -130 1554 -762 1770 -1598 48 -188 64 -319 64 -536 1 -357 -67 -647
-226 -965 -334 -670 -989 -1114 -1748 -1186 -221 -21 -486 2 -717 62 -647 166
-1185 629 -1449 1248 -302 705 -200 1530 266 2141 368 483 911 787 1515 850
121 12 396 4 525 -16z"/>
<path d="M3265 3569 c-59 -18 -95 -65 -95 -124 0 -52 17 -84 59 -112 l34 -23
1234 0 c1363 0 1272 -4 1313 63 31 50 26 109 -11 151 -17 20 -47 40 -67 46
-48 13 -2424 12 -2467 -1z"/>
<path d="M3209 2730 c-35 -36 -39 -46 -39 -92 0 -45 4 -54 39 -89 l39 -39
1249 0 1250 0 27 21 c66 52 74 146 17 203 l-31 31 -1257 3 -1256 2 -38 -40z"/>
<path d="M3233 1950 c-84 -51 -84 -175 1 -226 30 -18 74 -19 1266 -19 1192 0
1236 1 1266 19 63 38 83 120 44 183 -41 67 50 63 -1312 63 -1205 0 -1234 -1
-1265 -20z"/>
</g>
</svg>
